<?xml version="1.0" standalone="no"?>
<!DOCTYPE svg PUBLIC "-//W3C//DTD SVG 20010904//EN"
 "http://www.w3.org/TR/2001/REC-SVG-20010904/DTD/svg10.dtd">
<svg version="1.0" xmlns="http://www.w3.org/2000/svg"
 width="512.000000pt" height="512.000000pt" viewBox="0 0 512.000000 512.000000"
 preserveAspectRatio="xMidYMid meet">
<metadata>
Created by potrace 1.11, written by Peter Selinger 2001-2013
</metadata>
<g transform="translate(0.000000,512.000000) scale(0.100000,-0.100000)"
fill="#000000" stroke="none">
<path d="M2240 5053 c-42 -75 -89 -119 -180 -168 -147 -79 -245 -176 -305
-300 -53 -110 -67 -199 -67 -425 1 -460 98 -925 346 -1645 42 -121 76 -222 76
-225 0 -3 -31 54 -68 125 -237 453 -462 706 -1029 1162 -420 337 -605 429
-764 381 -45 -13 -128 1 -191 33 -21 11 -39 19 -41 19 -3 0 6 -28 18 -62 26
-72 55 -229 55 -299 0 -189 77 -474 186 -692 99 -197 198 -332 365 -498 293
-291 645 -484 1144 -629 68 -19 69 -20 20 -15 -264 28 -384 31 -565 14 -238
-22 -605 -107 -745 -173 -146 -69 -233 -170 -303 -352 -31 -83 -45 -107 -91
-151 -45 -45 -50 -54 -35 -59 77 -24 157 -61 204 -95 123 -89 174 -119 233
-138 150 -50 306 -51 548 -7 477 89 778 238 1156 573 45 40 85 73 89 73 12 0
-4 -594 -21 -780 -19 -206 -48 -426 -76 -558 -10 -52 -19 -100 -19 -107 0 -11
178 -61 186 -52 15 15 84 480 104 702 13 143 27 610 22 713 -2 39 -1 72 2 72
4 0 69 -31 145 -69 255 -128 517 -228 746 -285 489 -122 971 -67 1199 136 76
67 160 173 226 285 73 121 98 145 207 194 l94 43 -58 16 c-86 24 -119 45 -209
131 -136 130 -266 201 -433 234 -70 15 -122 17 -305 12 -345 -8 -539 -49 -901
-192 -11 -5 39 36 110 90 206 156 350 274 895 732 267 224 442 454 479 631 19
90 14 299 -10 405 -20 90 -26 179 -15 214 5 17 -3 17 -136 9 -116 -7 -165 -5
-269 9 -283 38 -324 22 -559 -214 -333 -335 -591 -706 -860 -1240 -45 -88 -83
-161 -84 -161 -2 0 12 55 31 123 130 474 197 1063 164 1449 -12 140 -46 354
-76 467 -25 97 -74 189 -131 246 -52 53 -169 119 -260 149 -92 30 -138 67
-174 140 -18 36 -34 66 -35 66 -2 0 -18 -26 -35 -57z"/>
</g>
</svg>
